<?xml version="1.0" standalone="no"?><svg xmlns="http://www.w3.org/2000/svg" viewBox="0 0 1440 320"><path fill="#0099ff" fill-opacity="1" d="M0,96L24,122.7C48,149,96,203,144,208C192,213,240,171,288,160C336,149,384,171,432,154.7C480,139,528,85,576,64C624,43,672,53,720,90.7C768,128,816,192,864,181.3C912,171,960,85,1008,80C1056,75,1104,149,1152,186.7C1200,224,1248,224,1296,224C1344,224,1392,224,1416,224L1440,224L1440,320L1416,320C1392,320,1344,320,1296,320C1248,320,1200,320,1152,320C1104,320,1056,320,1008,320C960,320,912,320,864,320C816,320,768,320,720,320C672,320,624,320,576,320C528,320,480,320,432,320C384,320,336,320,288,320C240,320,192,320,144,320C96,320,48,320,24,320L0,320Z"></path></svg>